<svg width="20" height="20" viewBox="0 0 20 20" fill="none" xmlns="http://www.w3.org/2000/svg">
<g id="iwwa:search">
<path id="Vector" d="M7.62099 14.0325C10.986 14.0325 13.723 11.295 13.723 7.93001C13.723 4.56451 10.9855 1.82651 7.62099 1.82651C4.25649 1.82651 1.51899 4.56451 1.51899 7.93001C1.51899 11.295 4.25649 14.0325 7.62099 14.0325ZM7.62099 2.26651C10.7435 2.26651 13.2835 4.80751 13.2835 7.93051C13.2835 11.053 10.7435 13.5935 7.62099 13.5935C4.49849 13.5935 1.95849 11.053 1.95849 7.93051C1.95849 4.80751 4.49849 2.26651 7.62099 2.26651Z" fill="black"/>
<path id="Vector_2" d="M2.91549 8.15001C2.97384 8.15001 3.02979 8.12683 3.07105 8.08557C3.11231 8.04431 3.13549 7.98835 3.13549 7.93001C3.13549 5.45601 5.14799 3.44301 7.62149 3.44301C7.67984 3.44301 7.73579 3.41983 7.77705 3.37857C7.81831 3.33731 7.84149 3.28135 7.84149 3.22301C7.84149 3.16466 7.81831 3.1087 7.77705 3.06744C7.73579 3.02618 7.67984 3.00301 7.62149 3.00301C4.90549 3.00301 2.69599 5.21301 2.69599 7.92951C2.69586 7.95842 2.70144 7.98707 2.71241 8.01381C2.72338 8.04056 2.73953 8.06487 2.75992 8.08536C2.78032 8.10585 2.80456 8.12211 2.83126 8.1332C2.85795 8.1443 2.88658 8.15001 2.91549 8.15001ZM18.261 18.173C18.3056 18.1729 18.349 18.1592 18.3857 18.1339C18.4223 18.1085 18.4504 18.0726 18.4662 18.0309C18.4819 17.9892 18.4847 17.9437 18.474 17.9004C18.4634 17.8571 18.4398 17.8181 18.4065 17.7885L11.8485 12.0145C11.8044 11.9788 11.7482 11.9615 11.6917 11.9662C11.6352 11.9709 11.5826 11.9973 11.5451 12.0398C11.5075 12.0823 11.4879 12.1377 11.4902 12.1944C11.4925 12.2511 11.5166 12.3047 11.5575 12.344L18.116 18.118C18.1559 18.1535 18.2075 18.1731 18.261 18.173Z" fill="black"/>
</g>
</svg>
