<svg width="1440" height="299" viewBox="0 0 1440 299" fill="none" xmlns="http://www.w3.org/2000/svg">
<path fill-rule="evenodd" clip-rule="evenodd" d="M-37 3.81597e-06L4.02776 35.8222C45.0555 71.6443 127.111 142.738 209.167 154.862C291.222 166.435 373.278 119.04 455.333 103.058C537.389 87.0754 619.444 142.738 701.5 154.862C783.556 166.435 865.611 135.022 947.667 138.88C1029.72 142.738 1111.78 142.738 1193.83 126.755C1275.89 111.324 1357.94 79.3599 1398.97 63.3777L1440 47.3955V238.08H1398.97C1357.94 238.08 1275.89 166.996 1193.83 166.996C1111.78 166.996 1065.66 216.572 965.468 267.59C833.738 352.618 783.556 238.08 701.5 238.08C619.444 238.08 574.348 282.094 468.557 219.573C388.706 182.061 367.853 168.556 209.167 245.582C65.2304 293.098 63.7045 229.577 4.02776 257.086L-37 245.582V3.81597e-06Z" fill="#B2AFB0" fill-opacity="0.35"/>
</svg>
