<svg width="1440" height="242" viewBox="0 0 1440 242" fill="none" xmlns="http://www.w3.org/2000/svg">
<path fill-rule="evenodd" clip-rule="evenodd" d="M1440 30.8224L1413.6 35.9594C1387.2 41.0965 1333.2 51.3706 1280.4 66.7818C1226.4 82.193 1173.6 102.741 1119.6 133.564C1066.8 164.386 1012.8 205.482 960 184.934C907.2 164.386 853.2 82.193 800.4 71.9189C746.4 61.6447 693.6 123.289 639.6 169.523C586.8 215.757 532.8 246.579 480 241.442C427.2 236.305 373.2 195.208 320.4 164.386C266.4 133.564 169.5 200.345 115.5 184.934C62.7 169.523 52.7999 71.9189 26.3999 66.7818L0 61.6447V0H26.3999C52.7999 0 106.8 0 159.6 0C213.6 0 266.4 0 320.4 0C373.2 0 427.2 0 480 0C532.8 0 586.8 0 639.6 0C693.6 0 746.4 0 800.4 0C853.2 0 907.2 0 960 0C1012.8 0 1066.8 0 1119.6 0C1173.6 0 1226.4 0 1280.4 0C1333.2 0 1387.2 0 1413.6 0H1440V30.8224Z" fill="#F6E0EA"/>
</svg>
