<svg width="1440" height="186" viewBox="0 0 1440 186" fill="none" xmlns="http://www.w3.org/2000/svg">
<path fill-rule="evenodd" clip-rule="evenodd" d="M-59 162.31L-30.345 158.362C-1.69 154.413 56.9225 146.517 114.232 134.672C172.845 122.827 230.155 107.034 288.768 83.3437C346.078 59.6538 404.69 28.0672 462 43.8605C519.31 59.6538 577.922 122.827 635.232 130.724C693.845 138.62 751.155 91.2403 809.768 55.7055C867.078 20.1706 925.69 -3.51935 983 0.428974C1040.31 4.37729 1098.92 35.9639 1156.23 59.6538C1214.84 83.3437 1272.16 99.137 1330.77 110.982C1388.08 122.827 1446.69 130.724 1475.34 134.672L1504 138.62V186H1475.34C1446.69 186 1388.08 186 1330.77 186C1272.16 186 1214.84 186 1156.23 186C1098.92 186 1040.31 186 983 186C925.69 186 867.078 186 809.768 186C751.155 186 693.845 186 635.232 186C577.922 186 519.31 186 462 186C404.69 186 346.078 186 288.768 186C230.155 186 172.845 186 114.232 186C56.9225 186 -1.69 186 -30.345 186H-59V162.31Z" fill="#FEE0EF"/>
</svg>
